<svg viewBox="0 0 800 600" xmlns="http://www.w3.org/2000/svg">
  <!-- Background -->
  <rect width="800" height="600" fill="#f8f9fa"/>
  
  <!-- Abstract education elements -->
  <g>
    <!-- Books stack -->
    <rect x="200" y="320" width="400" height="50" rx="5" fill="#BA0C2F"/>
    <rect x="220" y="280" width="360" height="50" rx="5" fill="#333333"/>
    <rect x="240" y="240" width="320" height="50" rx="5" fill="#BA0C2F"/>
    
    <!-- Graduation cap -->
    <rect x="320" y="190" width="160" height="10" fill="#333333"/>
    <polygon points="400,100 320,150 480,150" fill="#333333"/>
    <circle cx="400" cy="110" r="15" fill="#BA0C2F"/>
    
    <!-- Molecule/STEM elements -->
    <circle cx="200" y="420" r="25" fill="#BA0C2F" opacity="0.8"/>
    <circle cx="300" y="450" r="20" fill="#333333" opacity="0.8"/>
    <circle cx="400" y="420" r="25" fill="#BA0C2F" opacity="0.8"/>
    <circle cx="500" y="450" r="20" fill="#333333" opacity="0.8"/>
    <circle cx="600" y="420" r="25" fill="#BA0C2F" opacity="0.8"/>
    
    <line x1="200" y1="420" x2="300" y2="450" stroke="#333333" stroke-width="4"/>
    <line x1="300" y1="450" x2="400" y2="420" stroke="#333333" stroke-width="4"/>
    <line x1="400" y1="420" x2="500" y2="450" stroke="#333333" stroke-width="4"/>
    <line x1="500" y1="450" x2="600" y2="420" stroke="#333333" stroke-width="4"/>
    
    <!-- Gear representing learning mechanisms -->
    <circle cx="650" cy="200" r="60" fill="#f8f9fa" stroke="#BA0C2F" stroke-width="6"/>
    <circle cx="650" cy="200" r="45" fill="#f8f9fa" stroke="#333333" stroke-width="4"/>
    <circle cx="650" cy="200" r="20" fill="#BA0C2F"/>
    
    <!-- Gear teeth -->
    <rect x="640" y="120" width="20" height="30" fill="#BA0C2F"/>
    <rect x="640" y="250" width="20" height="30" fill="#BA0C2F"/>
    <rect x="570" y="190" width="30" height="20" fill="#BA0C2F"/>
    <rect x="700" y="190" width="30" height="20" fill="#BA0C2F"/>
    
    <!-- Rotated teeth -->
    <rect x="600" y="150" width="20" height="30" transform="rotate(45, 610, 165)" fill="#BA0C2F"/>
    <rect x="680" y="150" width="20" height="30" transform="rotate(-45, 690, 165)" fill="#BA0C2F"/>
    <rect x="600" y="230" width="20" height="30" transform="rotate(-45, 610, 245)" fill="#BA0C2F"/>
    <rect x="680" y="230" width="20" height="30" transform="rotate(45, 690, 245)" fill="#BA0C2F"/>
  </g>
  
  <!-- Game board outline -->
  <rect x="100" y="150" width="200" height="200" rx="10" fill="none" stroke="#333333" stroke-width="4" stroke-dasharray="10,5"/>
</svg>